# xmcd
#
# Track frame offsets:
#	150
#	17685
#	34837
#	54617
#	74982
#
# Disc length: 1269 seconds
#
# Revision: 3
# Processed by: cddbd v1.5.2PL0 Copyright (c) Steve Scherf et al.
# Submitted via: EasyCDDAExtractor 11.0.2.1
#
DISCID=4604f305
DTITLE=Yared - Silent Cry (1997)
DYEAR=1997
DGENRE=Dance
TTITLE0=Silent Cry (Radio Edit)
TTITLE1=Silent Cry (Soft Radio Edit)
TTITLE2=Silent Cry (Cool Mix)
TTITLE3=Silent Cry (Club Mix One)
TTITLE4=Silent Cry (Club Mix Too)
EXTD=YEAR: 1995
EXTT0=
EXTT1=
EXTT2=
EXTT3=
EXTT4=
PLAYORDER=
